<svg width="102" height="22" viewBox="0 0 102 22" fill="none" xmlns="http://www.w3.org/2000/svg">
<rect width="10" height="22" fill="#FF0000"/>
<rect x="10" width="10" height="22" fill="#00FF00"/>
<rect x="20" width="10" height="22" fill="#0000FF"/>
<path fill-rule="evenodd" clip-rule="evenodd" d="M47.1557 2.20011H49.3485V13.2007H47.1557V15.3997H38.3856V22H34V0H47.1557V2.20011ZM38.3856 11.0006H44.9629V4.40022H38.3856V11.0006Z" fill="white"/>
<path d="M55.9324 22H51.5468V0H55.9324V22Z" fill="white"/>
<path d="M62.5274 4.40022H64.7202V6.60033H66.9119V4.40022H69.1047V0H73.4903V6.60033H71.2975V8.80045H69.1047V11.0006H71.2975V13.2007H73.4903V22H69.1047V15.3997H66.9119V13.2007H64.7202V15.3997H62.5274V22H58.1419V13.2007H60.3346V11.0006H62.5274V8.80045H60.3346V6.60033H58.1419V0H62.5274V4.40022Z" fill="white"/>
<path d="M88.8443 4.40022H80.0743V8.80045H86.6515V13.2007H80.0743V17.5998H88.8443V22H75.6887V0H88.8443V4.40022Z" fill="white"/>
<path d="M102 22H91.0371V0H95.4227V17.5998H102V22Z" fill="white"/>
</svg>
